<svg width="32" height="32" viewBox="0 0 32 32" fill="none" xmlns="http://www.w3.org/2000/svg">
<g filter="url(#filter0_d_1_12)">
<path d="M23.4971 9.74857C23.4971 11.8998 22.7988 13.887 21.6224 15.4993L27.5559 21.4375C28.1418 22.0233 28.1418 22.9748 27.5559 23.5606C26.9701 24.1465 26.0186 24.1465 25.4328 23.5606L19.4993 17.6224C17.887 18.8035 15.8998 19.4971 13.7486 19.4971C8.36342 19.4971 4 15.1337 4 9.74857C4 4.36342 8.36342 0 13.7486 0C19.1337 0 23.4971 4.36342 23.4971 9.74857ZM13.7486 16.4976C14.6349 16.4976 15.5125 16.323 16.3313 15.9838C17.1501 15.6447 17.8941 15.1475 18.5208 14.5208C19.1475 13.8941 19.6447 13.1501 19.9838 12.3313C20.323 11.5125 20.4976 10.6349 20.4976 9.74857C20.4976 8.86228 20.323 7.98466 19.9838 7.16584C19.6447 6.34701 19.1475 5.603 18.5208 4.9763C17.8941 4.3496 17.1501 3.85247 16.3313 3.5133C15.5125 3.17413 14.6349 2.99956 13.7486 2.99956C12.8623 2.99956 11.9847 3.17413 11.1658 3.5133C10.347 3.85247 9.603 4.3496 8.9763 4.9763C8.3496 5.603 7.85247 6.34701 7.5133 7.16584C7.17413 7.98466 6.99956 8.86228 6.99956 9.74857C6.99956 10.6349 7.17413 11.5125 7.5133 12.3313C7.85247 13.1501 8.3496 13.8941 8.9763 14.5208C9.603 15.1475 10.347 15.6447 11.1658 15.9838C11.9847 16.323 12.8623 16.4976 13.7486 16.4976Z" fill="#868686"/>
<path d="M21.2185 15.2046L20.9664 15.5501L21.2687 15.8527L27.2022 21.7909L27.2024 21.791C27.593 22.1816 27.593 22.8165 27.2024 23.2071C26.8118 23.5976 26.1771 23.5976 25.7865 23.2072C25.7864 23.2072 25.7864 23.2071 25.7864 23.2071L19.853 17.269L19.5498 16.9656L19.2038 17.2191C17.6748 18.3392 15.7905 18.9971 13.7486 18.9971C8.63957 18.9971 4.5 14.8576 4.5 9.74857C4.5 4.63957 8.63957 0.5 13.7486 0.5C18.8576 0.5 22.9971 4.63957 22.9971 9.74857C22.9971 11.7898 22.3349 13.6746 21.2185 15.2046ZM13.7486 16.9976C14.7005 16.9976 15.6432 16.8101 16.5226 16.4458C17.4021 16.0815 18.2013 15.5475 18.8744 14.8744C19.5475 14.2013 20.0815 13.4021 20.4458 12.5226C20.8101 11.6432 20.9976 10.7005 20.9976 9.74857C20.9976 8.79662 20.8101 7.85399 20.4458 6.9745C20.0815 6.095 19.5475 5.29588 18.8744 4.62275C18.2013 3.94961 17.4021 3.41566 16.5226 3.05136C15.6432 2.68706 14.7005 2.49956 13.7486 2.49956C12.7966 2.49956 11.854 2.68706 10.9745 3.05136C10.095 3.41566 9.29588 3.94961 8.62275 4.62275C7.94961 5.29588 7.41566 6.095 7.05136 6.9745C6.68706 7.85399 6.49956 8.79662 6.49956 9.74857C6.49956 10.7005 6.68706 11.6432 7.05136 12.5226C7.41566 13.4021 7.94961 14.2013 8.62275 14.8744C9.29588 15.5475 10.095 16.0815 10.9745 16.4458C11.854 16.8101 12.7966 16.9976 13.7486 16.9976Z" stroke="black"/>
</g>
<defs>
<filter id="filter0_d_1_12" x="0" y="0" width="31.9953" height="32" filterUnits="userSpaceOnUse" color-interpolation-filters="sRGB">
<feFlood flood-opacity="0" result="BackgroundImageFix"/>
<feColorMatrix in="SourceAlpha" type="matrix" values="0 0 0 0 0 0 0 0 0 0 0 0 0 0 0 0 0 0 127 0" result="hardAlpha"/>
<feOffset dy="4"/>
<feGaussianBlur stdDeviation="2"/>
<feComposite in2="hardAlpha" operator="out"/>
<feColorMatrix type="matrix" values="0 0 0 0 0 0 0 0 0 0 0 0 0 0 0 0 0 0 0.25 0"/>
<feBlend mode="normal" in2="BackgroundImageFix" result="effect1_dropShadow_1_12"/>
<feBlend mode="normal" in="SourceGraphic" in2="effect1_dropShadow_1_12" result="shape"/>
</filter>
</defs>
</svg>
